# xmcd
# Track frame offsets:
# 150
# 16669
# 32088
# 54961
# 75389
# 95442
# 112963
# 133243
# 150644
# 171017
# 187319
#
# Disc length: 2897 seconds
# Revision: 0
# Processed by: cddbd v1.4PL0 Copyright (c) Steve Scherf et al.
# Submitted via: VisiTrax 2.9.5.180 - For more info visit www.synapsa.com
#
DISCID=800b4f0b
DTITLE=Parker and Cropper - Walk across Texas
DYEAR=1900
DGENRE=
TTITLE0=Walk across Texas
TTITLE1=Dancing on the wind
TTITLE2=Shame on you (shame on me)
TTITLE3=Running man
TTITLE4=Don't make me say goodbye
TTITLE5=Praying for a miracle
TTITLE6=I'll be there
TTITLE7=Let him ride
TTITLE8=Angel of mercy
TTITLE9=Baby it's a crime
TTITLE10=Wishing well
EXTD=
EXTT0=
EXTT1=
EXTT2=
EXTT3=
EXTT4=
EXTT5=
EXTT6=
EXTT7=
EXTT8=
EXTT9=
EXTT10=
PLAYORDER=
